<svg width="135" height="45" viewBox="0 0 135 45" fill="none" xmlns="http://www.w3.org/2000/svg">
<g clip-path="url(#clip0_2_12)">
<path d="M0.447754 44.2688L3.4431 35.3916C3.52655 35.1541 3.58804 34.9038 3.64513 34.6578C3.70223 34.4118 3.70223 34.1785 3.64513 33.958C3.58804 33.7374 3.43432 33.5423 3.20593 33.3727H19.8736L19.2411 35.2389H7.85706L6.84251 38.263H17.8049L17.1813 40.1292H6.21884L4.8178 44.2688H0.447754Z" fill="white"/>
<path d="M33.8665 44.269H28.7454L27.7572 41.2958H19.6232L16.6191 44.269H14.0278L22.9129 35.4682C23.2906 35.078 23.5277 34.7259 23.6375 34.3993C23.7737 33.9837 23.6946 33.6401 23.3828 33.3729H30.2211L33.8665 44.269ZM27.1248 39.4296L25.7237 35.2391L21.4942 39.4296H27.1248Z" fill="white"/>
<path d="M50.5167 44.2689H34.5737L35.2062 42.4027H48.0089C48.2724 42.4027 48.5403 42.2967 48.795 42.0931C49.0498 41.8895 49.2167 41.6605 49.3089 41.4018L49.5461 40.685C49.6383 40.4305 49.6207 40.2057 49.489 40.0233C49.3616 39.8452 49.1684 39.7561 48.8917 39.7561H38.2674C37.6745 39.7561 37.2221 39.544 36.941 39.1284C36.6555 38.7127 36.6116 38.2165 36.8049 37.6439L37.5998 35.2645C37.6745 35.0439 37.736 34.8234 37.7843 34.5944C37.8282 34.3653 37.8194 34.1448 37.7667 33.9327C37.7008 33.7291 37.5559 33.5425 37.3275 33.3771H55.9101L55.2776 35.2433H42.9317C42.677 35.2433 42.4179 35.3323 42.1631 35.5105C41.9172 35.6971 41.7503 35.9177 41.658 36.1721L41.4121 36.8974C41.3286 37.1519 41.3462 37.3852 41.4692 37.5888C41.5878 37.7923 41.781 37.8984 42.0445 37.8984H52.6688C53.2617 37.8984 53.7053 38.102 53.9952 38.5176C54.2894 38.9333 54.3334 39.4295 54.1313 40.0106L53.4066 42.161C53.2134 42.7463 52.8313 43.2383 52.2603 43.6539C51.6894 44.0696 51.114 44.2732 50.5123 44.2732L50.5167 44.2689Z" fill="white"/>
<path d="M61.0221 44.269L64.0614 35.2391H57.0298L57.6622 33.3729H76.0779L75.4454 35.2391H68.4226L65.3834 44.269H61.0265H61.0221Z" fill="white"/>
<path d="M78.3705 44.269H74.0137L77.0178 35.3536C77.1012 35.1161 77.1627 34.8659 77.2198 34.6283C77.2769 34.3908 77.2681 34.1703 77.211 33.9455C77.154 33.7334 77.0002 33.5383 76.7718 33.3687H93.6327C94.2301 33.3687 94.6693 33.5722 94.9591 33.9879C95.2446 34.4035 95.2885 34.9083 95.0953 35.4809L94.0236 38.6576C93.8304 39.2302 93.4571 39.7265 92.8861 40.1421C92.3195 40.5578 91.731 40.7698 91.1381 40.7698H79.552L78.3705 44.2647V44.269ZM88.6171 38.9079C88.8806 38.9079 89.1397 38.8188 89.3857 38.6322C89.6404 38.4456 89.8073 38.225 89.8995 37.9705L90.5056 36.168C90.5891 35.9135 90.5715 35.7014 90.4398 35.5148C90.3124 35.3282 90.1191 35.2391 89.8556 35.2391H81.4098L80.1757 38.9079H88.6171Z" fill="#FAD85D"/>
<path d="M109.238 44.2689H97.4143C96.7994 44.2689 96.29 44.1205 95.8771 43.8278C95.4643 43.5352 95.192 43.1365 95.0514 42.6445C94.9153 42.1482 94.9416 41.6011 95.1436 41.0073L96.6194 36.6472C96.8214 36.0449 97.1508 35.4978 97.6251 35.0015C98.1038 34.5053 98.6397 34.1066 99.2458 33.8182C99.8607 33.5255 100.462 33.3771 101.086 33.3771H112.909C113.524 33.3771 114.034 33.5255 114.455 33.8182C114.868 34.1108 115.14 34.5095 115.272 35.0015C115.408 35.4978 115.382 36.0449 115.18 36.6472L113.704 41.0073C113.502 41.6011 113.173 42.1482 112.707 42.6445C112.242 43.1407 111.701 43.5394 111.087 43.8278C110.472 44.1205 109.861 44.2689 109.238 44.2689ZM107.037 42.4027C107.542 42.4027 108.034 42.2246 108.513 41.881C108.992 41.5375 109.308 41.1133 109.484 40.6171L110.691 37.0247C110.854 36.5369 110.81 36.1128 110.573 35.7607C110.327 35.4172 109.958 35.239 109.448 35.239H103.295C102.79 35.239 102.298 35.4172 101.811 35.7607C101.336 36.1128 101.016 36.5411 100.849 37.0247L99.6411 40.6171C99.4654 41.1133 99.5137 41.5375 99.7596 41.881C100.006 42.2246 100.383 42.4027 100.888 42.4027H107.042H107.037Z" fill="#FAD85D"/>
<path d="M131.83 44.269H125.703L122.251 40.2439L115.601 44.269H112.075L121.105 38.8994L116.353 33.3729H122.479L125.339 36.7066L130.925 33.3729H134.452L126.494 38.0512L131.834 44.269H131.83Z" fill="#FAD85D"/>
<path fill-rule="evenodd" clip-rule="evenodd" d="M107.218 10.9826C106.783 9.47691 106.317 8.41233 105.645 7.4665C106.686 8.6456 107.578 9.9986 108.263 11.7079C108.329 11.7885 108.395 11.8733 108.461 11.9539C108.623 12.0472 108.786 12.1363 108.944 12.2296C109.348 12.2296 109.818 12.3186 110.446 12.624C112.101 14.0915 116.239 17.4507 116.186 14.8974C116.164 13.7861 114.724 9.61264 115.8 8.2766C116.476 8.10695 120.13 10.5585 120.244 9.14184C120.2 9.05702 122.471 9.86288 122.585 9.90953C122.941 8.93826 122.41 10.7493 121.483 9.54902C121.483 9.54053 121.483 9.53205 121.483 9.52357C120.161 8.55653 118.839 7.59374 117.512 6.62671C118.856 7.22898 120.2 7.82702 121.544 8.42929C121.571 7.50467 121.505 7.19081 120.631 6.29164C119.678 5.47306 118.729 4.65871 117.776 3.84013C117.767 2.91551 117.368 1.86365 116.63 1.71096C115.251 2.0842 114.205 2.84341 112.844 3.16575C112.826 3.16999 112.809 3.17423 112.791 3.17847C111.711 2.90703 110.599 2.72465 109.545 2.35989C106.857 1.43527 104.306 1.4183 101.521 1.60917C98.517 1.81275 96.3298 2.60589 89.9351 0.281616C95.693 3.85285 101.451 7.42409 107.209 10.9953L107.218 10.9826Z" fill="#FAD85D"/>
<path fill-rule="evenodd" clip-rule="evenodd" d="M21.3407 17.175C21.2661 17.2259 21.1914 17.2768 21.1167 17.332C17.366 19.8938 13.2902 22.4598 8.70053 22.0823C7.73429 25.6069 9.39447 25.679 12.8071 25.7893C15.0074 24.7035 17.2122 23.6135 19.4126 22.5277C18.7407 22.0229 18.0643 21.5182 17.3923 21.0093C18.3981 21.3486 19.4082 21.6921 20.414 22.0314C20.5765 21.9508 20.739 21.8702 20.9015 21.7897C21.0201 21.7472 21.1343 21.7048 21.2485 21.6624C20.5633 21.1492 19.8782 20.6318 19.193 20.1186C20.2295 20.53 21.2617 20.9371 22.2982 21.3486C22.6891 21.251 23.0756 21.1789 23.4664 21.1365C22.6978 20.5554 21.9292 19.9744 21.1606 19.3933C22.5309 19.9828 23.9013 20.5724 25.2716 21.1619C25.5395 21.2001 25.8074 21.2595 26.0797 21.3358C26.374 21.4249 26.6638 21.5182 26.9449 21.6115C26.4662 21.234 25.9875 20.8523 25.5087 20.4748C24.8104 19.9659 24.1077 19.4527 23.4093 18.9437C23.5587 19.02 23.708 19.0921 23.8573 19.1685C23.0185 18.5068 22.184 17.8409 21.3451 17.1793L21.3407 17.175Z" fill="#FAD85D"/>
<path fill-rule="evenodd" clip-rule="evenodd" d="M48.3649 2.41931C43.1999 2.83072 38.8958 5.93541 34.5916 8.6202C28.8644 11.2753 21.6528 12.0939 15.3239 12.7089C13.5056 12.8319 11.6829 12.9506 9.86463 13.0736C8.27033 13.2645 7.36997 15.4022 10.8045 15.347C20.2869 15.8178 32.6855 13.7989 40.6614 8.72623C42.1063 7.69558 43.2175 6.55889 44.6625 5.52824C43.3317 7.05089 42.8574 7.55561 41.1401 8.90437C40.2749 11.8352 37.3498 16.8145 33.8757 16.5049C31.9652 16.3353 29.8307 15.6354 27.9421 15.1562C25.812 14.6175 24.9731 15.0204 23.6907 15.9323C23.3656 16.1656 21.7977 15.7287 21.3849 16.0214C24.9863 18.1294 28.5921 20.2373 32.1936 22.3453C35.8653 23.6177 38.6762 24.5253 43.1867 22.8924C45.0841 21.6921 47.3767 20.653 49.7352 19.6902C48.8612 18.9861 47.9872 18.2778 47.1132 17.5737C48.5626 18.0488 50.0163 18.5238 51.4657 18.9988C51.9971 18.791 52.5285 18.5832 53.06 18.3754C51.6589 17.315 50.2579 16.2547 48.8568 15.1943C50.8157 16.0384 52.7745 16.8782 54.7377 17.7222C55.3219 17.4889 55.8972 17.2599 56.455 17.0308C54.6411 15.6948 52.8316 14.3588 51.0177 13.0227C53.4596 14.1297 55.9016 15.2367 58.3436 16.3395C59.178 16.1444 59.9203 16.1698 60.8294 16.3268C58.5631 14.6684 56.2925 13.0143 54.0218 11.3559C58.5104 13.8625 62.9991 16.3692 67.4921 18.8716C70.7729 20.6487 72.8328 21.7685 75.8633 22.5149C66.6971 15.8178 57.5354 9.11644 48.3693 2.41931H48.3649Z" fill="#FAD85D"/>
<path fill-rule="evenodd" clip-rule="evenodd" d="M77.1324 6.77519C77.0841 6.75398 77.0401 6.73278 77.0006 6.71157C72.4549 6.94484 71.0934 6.27471 67.4217 5.18892C63.7456 4.10312 59.5731 3.29302 56.1122 2.86888C54.4521 2.6653 53.0774 2.40233 51.3601 2.37689C50.9692 2.37264 48.2506 1.12144 47.5303 0.96875C56.8852 7.27567 66.2402 13.5826 75.5908 19.8938C77.6331 21.0347 79.6753 22.1756 81.722 23.3165C82.4203 23.3929 83.167 23.465 83.9751 23.5286C80.5845 21.0516 77.1939 18.5789 73.8032 16.102C78.2611 18.5917 82.7234 21.0813 87.1813 23.571C87.5546 23.5456 87.9279 23.5116 88.2924 23.465C84.9326 21.0135 81.5727 18.5577 78.2128 16.102C82.3193 18.3923 86.4258 20.6869 90.5324 22.9772C90.8749 22.867 91.2043 22.744 91.525 22.604C88.556 20.4366 85.587 18.2693 82.6224 16.102C86.0481 18.0148 89.4783 19.9277 92.904 21.8405C93.1061 21.7006 93.2993 21.5564 93.4838 21.3994C90.9935 19.5799 88.5033 17.7646 86.013 15.945C88.7756 17.4889 91.5425 19.0328 94.3051 20.5724C95.2538 19.4484 95.8994 17.8537 96.4879 16.5346C96.6153 22.1714 96.0048 24.7501 102.127 25.5348C106.739 26.1243 112.224 26.7775 117.082 27.9142C119.098 28.2408 120.543 28.5801 121.922 28.6522C121.268 28.1772 120.618 27.6979 119.963 27.2228C120.868 27.7021 121.777 28.1814 122.682 28.6649C123.038 28.6564 123.389 28.6267 123.753 28.5674C124.092 28.5165 124.39 28.4613 124.658 28.4104C123.745 27.7445 122.831 27.0744 121.918 26.4085C123.073 27.0193 124.228 27.6343 125.383 28.245C128.453 27.4222 124.324 26.5145 121.975 25.5517C120.521 25.293 119.155 25.0513 117.842 24.8053C113.151 23.9358 109.137 23.0409 104.205 21.2637C104.24 21.2043 104.275 21.1492 104.31 21.0941C102.663 19.775 101.02 18.4559 99.3735 17.1411C101.258 18.0615 103.142 18.9819 105.026 19.9022C105.298 19.4357 105.535 19.0031 105.742 18.5874C103.761 17.1072 101.78 15.6269 99.7995 14.1509C101.96 15.2155 104.126 16.2843 106.286 17.3489C106.304 17.298 106.322 17.2514 106.339 17.2005C106.431 16.9375 106.515 16.6746 106.59 16.4031C104.609 14.8253 102.624 13.2475 100.643 11.674C102.725 12.7555 104.811 13.8371 106.893 14.9144C106.958 14.4521 107.007 13.9558 107.046 13.4087C106.814 13.2178 106.581 13.0227 106.348 12.8319C101.521 9.35819 96.6987 5.88026 91.8719 2.40658C91.5337 2.51685 91.1956 2.64833 90.853 2.79678C89.6364 3.33119 88.4022 4.00557 86.9748 4.77326C84.8491 5.91419 80.1936 6.58009 77.128 6.78367L77.1324 6.77519Z" fill="#FAD85D"/>
<path d="M115.172 4.40425C115.172 4.40425 117.618 4.12432 119.252 4.85384C120.881 5.58335 121.176 6.51221 121.263 6.71156C121.351 6.90666 124.408 9.18852 124.672 9.72293C124.935 10.2573 123.622 10.7069 123.156 10.8766C122.401 11.7206 121.408 12.1151 121.408 12.1151C121.962 11.3007 122.282 11.411 122.282 10.7069C122.282 10.0029 119.691 9.72293 117.68 10.6221C115.668 11.5213 116.164 13.2942 116.485 14.0534C116.806 14.8126 117.969 14.8677 118.554 14.6429C119.138 14.4181 119.34 13.9134 119.34 13.9134C119.221 14.6429 118.786 15.1773 118.786 15.1773C118.641 16.0511 116.981 16.6406 116.134 16.7254C116.134 16.0511 116.656 15.4318 114.996 14.4478C113.336 13.4638 110.714 12.4204 110.424 10.3676C110.134 8.3148 111.671 6.72428 112.545 6.61401C111.118 5.37553 111.035 3.92498 111.412 3.36087C111.79 2.79677 113.481 3.02156 115.172 4.40001V4.40425Z" fill="#FEB123"/>
<path d="M115.171 4.40404C115.171 4.40404 117.618 4.12411 119.252 4.85363C120.881 5.58314 121.175 6.512 121.263 6.71135C121.351 6.90645 124.408 9.18831 124.671 9.72272C124.935 10.2571 123.622 10.7067 123.156 10.8764C122.401 11.7204 121.408 12.1149 121.408 12.1149C121.962 11.3005 122.282 11.4108 122.282 10.7067C122.282 10.0027 118.931 9.20103 116.924 10.1002C114.912 10.9994 115.466 13.0013 116.037 13.9683C116.458 14.6809 117.974 14.8675 118.553 14.6427C119.137 14.4179 119.339 13.9132 119.339 13.9132C119.221 14.6427 118.786 15.1771 118.786 15.1771C118.641 16.0508 116.981 16.6404 116.133 16.7252C116.133 16.0508 116.656 15.4316 114.996 14.4476C113.336 13.4636 110.714 12.4202 110.424 10.3674C110.134 8.31458 111.627 6.86828 112.128 6.55017C111.083 5.18445 111.034 3.92476 111.412 3.3649C111.79 2.8008 113.481 3.02559 115.171 4.40404Z" fill="#FAD85D"/>
<path opacity="0.63" d="M114.535 5.06592C114.473 5.06592 112.681 3.31847 111.86 3.67475C111.039 4.03102 112.642 5.92267 112.949 6.26198C113.67 5.06592 114.535 5.06592 114.535 5.06592Z" fill="#FEB123"/>
<path d="M119.081 7.41567C119.081 7.41567 119.695 6.95336 120.029 7.00001C120.363 7.04667 120.631 7.55563 120.916 7.74649C121.202 7.93311 122.072 8.52266 122.401 8.89591C122.73 9.26915 122.818 9.54484 122.818 9.54484C122.818 9.54484 122.498 9.01042 121.764 8.50146C120.842 7.86525 120.785 7.85253 120.455 7.72529C120.126 7.59805 119.081 7.41991 119.081 7.41991V7.41567Z" fill="#FEB123"/>
</g>
<defs>
<clipPath id="clip0_2_12">
<rect width="134" height="44" fill="white" transform="translate(0.447754 0.268921)"/>
</clipPath>
</defs>
</svg>
