<svg width="119" height="29" viewBox="0 0 119 29" fill="none" xmlns="http://www.w3.org/2000/svg">
<path fill-rule="evenodd" clip-rule="evenodd" d="M99.2176 10.9826C98.7828 9.47691 98.3172 8.41233 97.6453 7.4665C98.6862 8.6456 99.5777 9.9986 100.263 11.7079C100.329 11.7885 100.395 11.8733 100.461 11.9539C100.623 12.0472 100.786 12.1363 100.944 12.2296C101.348 12.2296 101.818 12.3186 102.446 12.624C104.101 14.0915 108.239 17.4507 108.186 14.8974C108.164 13.7861 106.724 9.61264 107.8 8.2766C108.476 8.10695 112.13 10.5585 112.244 9.14184C112.2 9.05702 114.471 9.86288 114.585 9.90953C114.941 8.93826 114.41 10.7493 113.483 9.54902C113.483 9.54053 113.483 9.53205 113.483 9.52357C112.161 8.55653 110.839 7.59374 109.512 6.62671C110.856 7.22898 112.2 7.82702 113.544 8.42929C113.571 7.50467 113.505 7.19081 112.631 6.29164C111.678 5.47306 110.729 4.65871 109.776 3.84013C109.767 2.91551 109.368 1.86365 108.63 1.71096C107.251 2.0842 106.205 2.84341 104.844 3.16575C104.826 3.16999 104.809 3.17423 104.791 3.17847C103.711 2.90703 102.599 2.72465 101.545 2.35989C98.8574 1.43527 96.3057 1.4183 93.5212 1.60917C90.517 1.81275 88.3298 2.60589 81.9351 0.281616C87.693 3.85285 93.4509 7.42409 99.2088 10.9953L99.2176 10.9826Z" fill="#FAD85D"/>
<path fill-rule="evenodd" clip-rule="evenodd" d="M13.3407 17.175C13.2661 17.2259 13.1914 17.2768 13.1167 17.332C9.36596 19.8938 5.29018 22.4598 0.700534 22.0823C-0.265707 25.6069 1.39447 25.679 4.80705 25.7893C7.00745 24.7035 9.21223 23.6135 11.4126 22.5277C10.7407 22.0229 10.0643 21.5182 9.39231 21.0093C10.3981 21.3486 11.4082 21.6921 12.414 22.0314C12.5765 21.9508 12.739 21.8702 12.9015 21.7897C13.0201 21.7472 13.1343 21.7048 13.2485 21.6624C12.5633 21.1492 11.8782 20.6318 11.193 20.1186C12.2295 20.53 13.2617 20.9371 14.2982 21.3486C14.6891 21.251 15.0756 21.1789 15.4664 21.1365C14.6978 20.5554 13.9292 19.9744 13.1606 19.3933C14.5309 19.9828 15.9013 20.5724 17.2716 21.1619C17.5395 21.2001 17.8074 21.2595 18.0797 21.3358C18.374 21.4249 18.6638 21.5182 18.9449 21.6115C18.4662 21.234 17.9875 20.8523 17.5087 20.4748C16.8104 19.9659 16.1077 19.4527 15.4093 18.9437C15.5587 19.02 15.708 19.0921 15.8573 19.1685C15.0185 18.5068 14.184 17.8409 13.3451 17.1793L13.3407 17.175Z" fill="#FAD85D"/>
<path fill-rule="evenodd" clip-rule="evenodd" d="M40.3649 2.41931C35.1999 2.83072 30.8958 5.93541 26.5916 8.6202C20.8644 11.2753 13.6528 12.0939 7.32389 12.7089C5.5056 12.8319 3.68292 12.9506 1.86463 13.0736C0.270335 13.2645 -0.630026 15.4022 2.80452 15.347C12.2869 15.8178 24.6855 13.7989 32.6614 8.72623C34.1063 7.69558 35.2175 6.55889 36.6625 5.52824C35.3317 7.05089 34.8574 7.55561 33.1401 8.90437C32.2749 11.8352 29.3498 16.8145 25.8757 16.5049C23.9652 16.3353 21.8307 15.6354 19.9421 15.1562C17.812 14.6175 16.9731 15.0204 15.6907 15.9323C15.3656 16.1656 13.7977 15.7287 13.3849 16.0214C16.9863 18.1294 20.5921 20.2373 24.1936 22.3453C27.8653 23.6177 30.6762 24.5253 35.1867 22.8924C37.0841 21.6921 39.3767 20.653 41.7352 19.6902C40.8612 18.9861 39.9872 18.2778 39.1132 17.5737C40.5626 18.0488 42.0163 18.5238 43.4657 18.9988C43.9971 18.791 44.5285 18.5832 45.06 18.3754C43.6589 17.315 42.2579 16.2547 40.8568 15.1943C42.8157 16.0384 44.7745 16.8782 46.7377 17.7222C47.3219 17.4889 47.8972 17.2599 48.455 17.0308C46.6411 15.6948 44.8316 14.3588 43.0177 13.0227C45.4596 14.1297 47.9016 15.2367 50.3436 16.3395C51.178 16.1444 51.9203 16.1698 52.8294 16.3268C50.5631 14.6684 48.2925 13.0143 46.0218 11.3559C50.5104 13.8625 54.9991 16.3692 59.4921 18.8716C62.7729 20.6487 64.8328 21.7685 67.8633 22.5149C58.6971 15.8178 49.5354 9.11644 40.3693 2.41931H40.3649Z" fill="#FAD85D"/>
<path fill-rule="evenodd" clip-rule="evenodd" d="M69.1324 6.77519C69.0841 6.75398 69.0401 6.73278 69.0006 6.71157C64.4549 6.94484 63.0934 6.27471 59.4217 5.18892C55.7456 4.10312 51.5731 3.29302 48.1122 2.86888C46.4521 2.6653 45.0774 2.40233 43.3601 2.37689C42.9692 2.37264 40.2506 1.12144 39.5303 0.96875C48.8852 7.27567 58.2402 13.5826 67.5908 19.8938C69.6331 21.0347 71.6753 22.1756 73.722 23.3165C74.4203 23.3929 75.167 23.465 75.9751 23.5286C72.5845 21.0516 69.1939 18.5789 65.8032 16.102C70.2611 18.5917 74.7234 21.0813 79.1813 23.571C79.5546 23.5456 79.9279 23.5116 80.2924 23.465C76.9326 21.0135 73.5727 18.5577 70.2128 16.102C74.3193 18.3923 78.4258 20.6869 82.5324 22.9772C82.8749 22.867 83.2043 22.744 83.525 22.604C80.556 20.4366 77.587 18.2693 74.6224 16.102C78.0481 18.0148 81.4783 19.9277 84.904 21.8405C85.1061 21.7006 85.2993 21.5564 85.4838 21.3994C82.9935 19.5799 80.5033 17.7646 78.013 15.945C80.7756 17.4889 83.5425 19.0328 86.3051 20.5724C87.2538 19.4484 87.8994 17.8537 88.4879 16.5346C88.6153 22.1714 88.0048 24.7501 94.1273 25.5348C98.7389 26.1243 104.224 26.7775 109.082 27.9142C111.098 28.2408 112.543 28.5801 113.922 28.6522C113.268 28.1772 112.618 27.6979 111.963 27.2228C112.868 27.7021 113.777 28.1814 114.682 28.6649C115.038 28.6564 115.389 28.6267 115.753 28.5674C116.092 28.5165 116.39 28.4613 116.658 28.4104C115.745 27.7445 114.831 27.0744 113.918 26.4085C115.073 27.0193 116.228 27.6343 117.383 28.245C120.453 27.4222 116.324 26.5145 113.975 25.5517C112.521 25.293 111.155 25.0513 109.842 24.8053C105.151 23.9358 101.137 23.0409 96.2047 21.2637C96.2398 21.2043 96.2749 21.1492 96.3101 21.0941C94.6631 19.775 93.0205 18.4559 91.3735 17.1411C93.2576 18.0615 95.1418 18.9819 97.026 19.9022C97.2983 19.4357 97.5354 19.0031 97.7419 18.5874C95.7611 17.1072 93.7803 15.6269 91.7995 14.1509C93.9604 15.2155 96.1256 16.2843 98.2865 17.3489C98.304 17.298 98.3216 17.2514 98.3392 17.2005C98.4314 16.9375 98.5149 16.6746 98.5895 16.4031C96.6087 14.8253 94.6236 13.2475 92.6428 11.674C94.7246 12.7555 96.8108 13.8371 98.8926 14.9144C98.9585 14.4521 99.0068 13.9558 99.0463 13.4087C98.8135 13.2178 98.5807 13.0227 98.348 12.8319C93.5212 9.35819 88.6987 5.88026 83.8719 2.40658C83.5337 2.51685 83.1956 2.64833 82.853 2.79678C81.6364 3.33119 80.4022 4.00557 78.9748 4.77326C76.8491 5.91419 72.1936 6.58009 69.128 6.78367L69.1324 6.77519Z" fill="#FAD85D"/>
</svg>
